<mxfile host="app.diagrams.net" agent="Mozilla/5.0 (X11; Ubuntu; Linux x86_64; rv:137.0) Gecko/20100101 Firefox/137.0" version="26.2.14">
  <diagram name="Page-1" id="I-WCKS0thHTMVLHOPiGX">
    <mxGraphModel dx="951" dy="530" grid="1" gridSize="10" guides="1" tooltips="1" connect="1" arrows="1" fold="1" page="1" pageScale="1" pageWidth="850" pageHeight="1100" math="0" shadow="0">
      <root>
        <mxCell id="0" />
        <mxCell id="1" parent="0" />
        <mxCell id="E8oWA0aktgfHAe41XzHA-10" value="" style="rounded=0;whiteSpace=wrap;html=1;" vertex="1" parent="1">
          <mxGeometry x="215" y="80" width="170" height="270" as="geometry" />
        </mxCell>
        <mxCell id="E8oWA0aktgfHAe41XzHA-1" value="&lt;div&gt;INNOVATE administrative&lt;/div&gt;&lt;div&gt;worker&lt;/div&gt;" style="shape=umlActor;verticalLabelPosition=bottom;verticalAlign=top;html=1;outlineConnect=0;" vertex="1" parent="1">
          <mxGeometry x="110" y="120" width="30" height="60" as="geometry" />
        </mxCell>
        <mxCell id="E8oWA0aktgfHAe41XzHA-3" value="System Administrator" style="shape=umlActor;verticalLabelPosition=bottom;verticalAlign=top;html=1;outlineConnect=0;" vertex="1" parent="1">
          <mxGeometry x="110" y="260" width="30" height="60" as="geometry" />
        </mxCell>
        <mxCell id="E8oWA0aktgfHAe41XzHA-4" value="Visitor at INNOVATE" style="shape=umlActor;verticalLabelPosition=bottom;verticalAlign=top;html=1;outlineConnect=0;" vertex="1" parent="1">
          <mxGeometry x="470" y="170" width="30" height="60" as="geometry" />
        </mxCell>
        <mxCell id="E8oWA0aktgfHAe41XzHA-6" value="View rich visitor data" style="ellipse;whiteSpace=wrap;html=1;" vertex="1" parent="1">
          <mxGeometry x="240" y="100" width="120" height="50" as="geometry" />
        </mxCell>
        <mxCell id="E8oWA0aktgfHAe41XzHA-7" value="View visitor insights" style="ellipse;whiteSpace=wrap;html=1;" vertex="1" parent="1">
          <mxGeometry x="240" y="160" width="120" height="50" as="geometry" />
        </mxCell>
        <mxCell id="E8oWA0aktgfHAe41XzHA-8" value="Configure Edge Devices" style="ellipse;whiteSpace=wrap;html=1;" vertex="1" parent="1">
          <mxGeometry x="240" y="280" width="120" height="50" as="geometry" />
        </mxCell>
        <mxCell id="E8oWA0aktgfHAe41XzHA-13" value="" style="endArrow=none;html=1;rounded=0;" edge="1" parent="1" source="E8oWA0aktgfHAe41XzHA-3" target="E8oWA0aktgfHAe41XzHA-8">
          <mxGeometry width="50" height="50" relative="1" as="geometry">
            <mxPoint x="390" y="330" as="sourcePoint" />
            <mxPoint x="440" y="280" as="targetPoint" />
          </mxGeometry>
        </mxCell>
        <mxCell id="E8oWA0aktgfHAe41XzHA-14" value="" style="endArrow=none;html=1;rounded=0;" edge="1" parent="1" source="E8oWA0aktgfHAe41XzHA-7" target="E8oWA0aktgfHAe41XzHA-4">
          <mxGeometry width="50" height="50" relative="1" as="geometry">
            <mxPoint x="390" y="330" as="sourcePoint" />
            <mxPoint x="440" y="280" as="targetPoint" />
          </mxGeometry>
        </mxCell>
        <mxCell id="E8oWA0aktgfHAe41XzHA-15" value="" style="endArrow=none;html=1;rounded=0;" edge="1" parent="1" source="E8oWA0aktgfHAe41XzHA-7" target="E8oWA0aktgfHAe41XzHA-1">
          <mxGeometry width="50" height="50" relative="1" as="geometry">
            <mxPoint x="390" y="330" as="sourcePoint" />
            <mxPoint x="440" y="280" as="targetPoint" />
          </mxGeometry>
        </mxCell>
        <mxCell id="E8oWA0aktgfHAe41XzHA-16" value="" style="endArrow=none;html=1;rounded=0;" edge="1" parent="1" source="E8oWA0aktgfHAe41XzHA-6" target="E8oWA0aktgfHAe41XzHA-1">
          <mxGeometry width="50" height="50" relative="1" as="geometry">
            <mxPoint x="390" y="330" as="sourcePoint" />
            <mxPoint x="440" y="280" as="targetPoint" />
          </mxGeometry>
        </mxCell>
        <mxCell id="E8oWA0aktgfHAe41XzHA-17" value="Define events" style="ellipse;whiteSpace=wrap;html=1;" vertex="1" parent="1">
          <mxGeometry x="240" y="220" width="120" height="50" as="geometry" />
        </mxCell>
        <mxCell id="E8oWA0aktgfHAe41XzHA-18" value="" style="endArrow=none;html=1;rounded=0;" edge="1" parent="1" source="E8oWA0aktgfHAe41XzHA-17" target="E8oWA0aktgfHAe41XzHA-1">
          <mxGeometry width="50" height="50" relative="1" as="geometry">
            <mxPoint x="390" y="330" as="sourcePoint" />
            <mxPoint x="440" y="280" as="targetPoint" />
          </mxGeometry>
        </mxCell>
      </root>
    </mxGraphModel>
  </diagram>
</mxfile>
